<?xml version="1.0" encoding="utf-8"?>
<!-- Generator: Adobe Illustrator 26.4.1, SVG Export Plug-In . SVG Version: 6.00 Build 0)  -->
<svg version="1.1" id="圖層_1" xmlns="http://www.w3.org/2000/svg" xmlns:xlink="http://www.w3.org/1999/xlink" x="0px" y="0px"
	 viewBox="0 0 18 16" style="enable-background:new 0 0 18 16;" xml:space="preserve">
<style type="text/css">
	.st0{fill:#31344B;}
</style>
<path class="st0" d="M9,15.5l-1.2-1.1c-1.4-1.3-2.6-2.4-3.5-3.3c-0.9-0.9-1.6-1.7-2.2-2.5C1.6,7.9,1.2,7.3,1,6.7
	C0.8,6.1,0.7,5.4,0.7,4.8c0-1.3,0.4-2.4,1.3-3.3c0.9-0.9,2-1.3,3.3-1.3c0.7,0,1.4,0.2,2.1,0.5C8,1,8.5,1.4,9,2c0.5-0.6,1-1,1.7-1.3
	c0.7-0.3,1.3-0.5,2.1-0.5c1.3,0,2.4,0.4,3.3,1.3c0.9,0.9,1.3,2,1.3,3.3c0,0.6-0.1,1.3-0.3,1.9c-0.2,0.6-0.6,1.3-1.1,2
	c-0.5,0.7-1.3,1.6-2.2,2.5c-0.9,0.9-2.1,2-3.5,3.3L9,15.5z M9,13.2c1.3-1.2,2.4-2.2,3.3-3.1c0.9-0.9,1.5-1.6,2-2.2
	c0.5-0.6,0.8-1.2,1-1.7c0.2-0.5,0.3-1,0.3-1.5c0-0.8-0.3-1.5-0.8-2.1c-0.6-0.6-1.2-0.8-2.1-0.8c-0.7,0-1.3,0.2-1.8,0.6
	C10.4,2.8,10,3.3,9.8,3.8H8.2C8,3.3,7.6,2.8,7.1,2.4C6.5,2.1,5.9,1.9,5.2,1.9c-0.8,0-1.5,0.3-2.1,0.8C2.6,3.3,2.3,4,2.3,4.8
	c0,0.5,0.1,1,0.3,1.5c0.2,0.5,0.5,1.1,1,1.7c0.5,0.6,1.2,1.4,2,2.2C6.6,11,7.7,12.1,9,13.2z"/>
</svg>
